# xmcd
#
# Track frame offsets: 
#        150
#        16631
#        33363
#        49481
#        67767
#        83555
#        97113
#        117353
#        135253
#        163865
#        178104
#
# Disc length: 2583 seconds
#
# Revision: 1
# Processed by: cddbd v1.5.2PL0 Copyright (c) Steve Scherf et al.
# Submitted via: ExactAudioCopy v0.99pb5
#
DISCID=850a150b
DTITLE=Doc Holliday - Doc Holliday Rides Again - Remastered
DYEAR=2005
DGENRE=Southern Rock
TTITLE0=Last Ride
TTITLE1=Good Boy Gone Bad
TTITLE2=Don't Go Talkin'
TTITLE3=Southern Man
TTITLE4=Let Me Be Your Lover
TTITLE5=Doin' ( It Again)
TTITLE6=Don't Stop Loving Me
TTITLE7=Hot Rod
TTITLE8=Lonesome Guitar
TTITLE9=Whiskey Train - Bonus Track
TTITLE10=Travelin' Band - Bonus Track
EXTD=
EXTT0=
EXTT1=
EXTT2=
EXTT3=
EXTT4=
EXTT5=
EXTT6=
EXTT7=
EXTT8=
EXTT9=
EXTT10=
PLAYORDER=
